/vscmnt/brussel_pixiu_data/_data_brussel/112/vsc11236/PredSimResults/SUBJ09opt3D/weighted-expIG/worker_03.mot
version=1
nRows=4
nColumns=50
inDegrees=yes
endheader
                time	         pelvis_tilt	         pelvis_list	     pelvis_rotation	           pelvis_tx	           pelvis_ty	           pelvis_tz	       hip_flexion_r	     hip_adduction_r	      hip_rotation_r	        knee_angle_r	       ankle_angle_r	         mtp_angle_r	       hip_flexion_l	     hip_adduction_l	      hip_rotation_l	        knee_angle_l	       ankle_angle_l	         mtp_angle_l	    lumbar_extension	      lumbar_bending	     lumbar_rotation	 ercspn_r/activation	 intobl_r/activation	 extobl_r/activation	    abd_r/activation	    add_r/activation	hamstrings_r/activation	bifemsh_r/activation	glut_max_r/activation	iliopsoas_r/activation	rect_fem_r/activation	  vasti_r/activation	gastroc_r/activation	 soleus_r/activation	tib_ant_r/activation	 ercspn_l/activation	 intobl_l/activation	 extobl_l/activation	    abd_l/activation	    add_l/activation	hamstrings_l/activation	bifemsh_l/activation	glut_max_l/activation	iliopsoas_l/activation	rect_fem_l/activation	  vasti_l/activation	gastroc_l/activation	 soleus_l/activation	tib_ant_l/activation	
          0.00000000	         -4.30535395	         -0.91740861	          7.47562644	          0.00000000	          0.99197020	         -0.00165402	         28.51310556	         -0.92278073	         -7.54863724	         -4.46537227	          3.91285341	          0.22252027	        -12.30390017	         -1.96337728	         -5.38129748	        -10.97166541	          4.68508355	         36.63412552	        -13.52317607	         -1.80081594	         -8.20822955	          0.03583505	          0.17975234	          0.04039001	          0.00999999	          0.23672980	          0.06170681	          0.08849663	          0.01917200	          0.13866958	          0.01953991	          0.01125818	          0.01812393	          0.01167236	          0.31195769	          0.00999999	          0.00999999	          0.00999999	          0.04000800	          0.00999999	          0.01625060	          0.29217810	          0.01486511	          0.03379663	          0.00999999	          0.00999999	          0.33687232	          0.24972574	          0.01418529	
          0.01315357	         -4.37837473	         -1.00134319	          7.45721902	          0.01991985	          0.98967671	         -0.00083974	         28.46245185	         -0.69083794	         -8.01317132	         -5.88238226	          3.40877422	          0.24002226	        -12.90340523	         -2.26506349	         -5.85122954	        -11.75151197	          3.62229865	         38.32365420	        -12.98645940	         -1.35687333	         -8.35824074	          0.02939164	          0.14743149	          0.03312758	          0.00999999	          0.29276027	          0.05061146	          0.07258426	          0.09585371	          0.11373573	          0.01602648	          0.00999999	          0.01486511	          0.01486511	          0.32917288	          0.03466027	          0.00999999	          0.00999999	          0.03281425	          0.01219225	          0.02881896	          0.24564226	          0.01219225	          0.08167481	          0.00999999	          0.00999999	          0.30870373	          0.22865175	          0.01163467	
          0.02630714	         -4.42419614	         -1.12903247	          7.41910326	          0.04042897	          0.98746130	         -0.00003064	         28.24110301	         -0.48488371	         -8.23589085	         -7.46146365	          2.97986825	          0.20727096	        -13.37153449	         -2.63805853	         -6.33473815	        -12.86175625	          2.45495574	         40.00214556	        -12.39913250	         -0.85276477	         -8.47399295	          0.02410680	          0.12092219	          0.02717099	          0.07946967	          0.24011974	          0.06227349	          0.05953306	          0.11780969	          0.09328518	          0.01314480	          0.00999999	          0.01219225	          0.01219225	          0.37199963	          0.02842809	          0.00999999	          0.00999999	          0.02691400	          0.00999999	          0.02862381	          0.20147391	          0.00999999	          0.08600431	          0.00999999	          0.00999999	          0.27462530	          0.20328703	          0.00999999	
          0.03946071	         -4.45002487	         -1.27727230	          7.35051478	          0.06113017	          0.98557946	          0.00087683	         27.90682083	         -0.25743857	         -8.47806548	         -8.86731662	          2.35722924	          0.19588383	        -13.60581352	         -3.06688270	         -6.83432913	        -14.42181030	          1.14166245	         41.59590730	        -11.80738278	         -0.32660058	         -8.54846068	          0.02345779	          0.09917945	          0.02228544	          0.13141746	          0.22981521	          0.06200877	          0.04882856	          0.14625220	          0.07651179	          0.01078126	          0.00999999	          0.00999999	          0.00999999	          0.41803781	          0.02331650	          0.00999999	          0.00999999	          0.02207466	          0.00999999	          0.03710776	          0.16524736	          0.00999999	          0.12379618	          0.00999999	          0.00999999	          0.22524558	          0.16673447	          0.00999999	
